# xmcd
#
# Track frame offsets:
#	150
#	15117
#	33144
#	48230
#	71316
#	94002
#	114648
#	133235
#	149761
#	176867
#	191714
#	195821
#	214015
#	239160
#	270380
#	283697
#	323050
#	340695
#
# Disc length: 4737 seconds
#
# Revision: 1
# Processed by: cddbd v1.4PL0 Copyright (c) Steve Scherf et al.
# Submitted via: EasyCDDAExtractor 5.0.7
#
DISCID=05127f12
DTITLE=Simply Red - Home
DYEAR=1900
DGENRE=
TTITLE0=Home
TTITLE1=Fake
TTITLE2=Sunrise
TTITLE3=You Make Me Feel Brand New
TTITLE4=Home Loan Blues
TTITLE5=Positively 4th Street
TTITLE6=Lost Weekend
TTITLE7=Money In My Pocket (Plan B Mix
TTITLE8=Something For You
TTITLE9=It's You
TTITLE10=Home (Reprise)
TTITLE11=Angel
TTITLE12=Fairground (Extended Mix)
TTITLE13=Jericho (12'' Extended Mix)
TTITLE14=Lady Godiva's Room
TTITLE15=Money too tight (dmc mix)
TTITLE16=Sunrise (124 bpm MSOF mix)
TTITLE17=Sunrise remix 2003
EXTD=
EXTT0=
EXTT1=
EXTT2=
EXTT3=
EXTT4=
EXTT5=
EXTT6=
EXTT7=
EXTT8=
EXTT9=
EXTT10=
EXTT11=
EXTT12=
EXTT13=
EXTT14=
EXTT15=
EXTT16=
EXTT17=
PLAYORDER=
